<svg xmlns="http://www.w3.org/2000/svg" width="40" height="40" viewBox="0 0 40 40">
  <g id="floor_facilities_bt_ele" transform="translate(-695.982 -730.5)">
    <rect id="사각형_656" data-name="사각형 656" width="40" height="40" rx="6" transform="translate(695.982 730.5)" fill="#fcfcfc"/>
    <g id="그룹_659" data-name="그룹 659" transform="translate(704.517 735.553)">
      <path id="패스_794" data-name="패스 794" d="M74.306,224.727a1.77,1.77,0,1,1-1.768,1.77A1.772,1.772,0,0,1,74.306,224.727Zm0,2.417a.647.647,0,1,0-.644-.647A.647.647,0,0,0,74.306,227.144Z" transform="translate(-58.539 -215.237)" fill="#646464"/>
      <path id="패스_795" data-name="패스 795" d="M74.641,241.363a.562.562,0,0,1-.562-.562v-6.7a.562.562,0,0,1,.562-.562h.211a.636.636,0,0,0,.148-.014.588.588,0,0,0,.011-.127v-5.319a.562.562,0,0,1,.562-.562c1.086,0,2.246.793,2.246,3.019a15.308,15.308,0,0,1-.235,3.148.562.562,0,0,1-1.094-.256h0a14.8,14.8,0,0,0,.206-2.892,2.125,2.125,0,0,0-.56-1.71V233.4a1.127,1.127,0,0,1-.932,1.232V240.8A.562.562,0,0,1,74.641,241.363Z" transform="translate(-57.999 -214.26)" fill="#646464"/>
      <path id="패스_796" data-name="패스 796" d="M74.026,241.363a.562.562,0,0,1-.562-.562v-6.172a1.127,1.127,0,0,1-.932-1.232v-4.571a2.124,2.124,0,0,0-.56,1.71,14.8,14.8,0,0,0,.206,2.892.562.562,0,0,1-1.094.256,15.308,15.308,0,0,1-.235-3.148c0-2.226,1.16-3.019,2.246-3.019a.562.562,0,0,1,.562.562V233.4a.588.588,0,0,0,.011.127.633.633,0,0,0,.147.013h.212a.562.562,0,0,1,.562.562v6.7A.562.562,0,0,1,74.026,241.363Z" transform="translate(-59.13 -214.26)" fill="#646464"/>
      <path id="패스_797" data-name="패스 797" d="M68.091,224.727a1.77,1.77,0,1,1-1.77,1.77A1.772,1.772,0,0,1,68.091,224.727Zm0,2.417a.647.647,0,1,0-.647-.647A.647.647,0,0,0,68.091,227.144Z" transform="translate(-60.716 -215.237)" fill="#646464"/>
      <path id="패스_798" data-name="패스 798" d="M68.424,241.363a.562.562,0,0,1-.562-.562v-6.7a.562.562,0,0,1,.562-.562h.212a.638.638,0,0,0,.147-.013.594.594,0,0,0,.011-.127v-5.319a.562.562,0,0,1,.562-.562c1.086,0,2.246.793,2.246,3.019a15.222,15.222,0,0,1-.237,3.149.562.562,0,0,1-1.094-.258,14.805,14.805,0,0,0,.206-2.891,2.125,2.125,0,0,0-.56-1.71V233.4a1.127,1.127,0,0,1-.932,1.232V240.8A.562.562,0,0,1,68.424,241.363Z" transform="translate(-60.176 -214.26)" fill="#646464"/>
      <path id="패스_799" data-name="패스 799" d="M67.809,241.363a.562.562,0,0,1-.562-.562v-6.172a1.126,1.126,0,0,1-.929-1.232v-4.572a2.122,2.122,0,0,0-.561,1.71,14.716,14.716,0,0,0,.207,2.891.562.562,0,0,1-1.094.257,15.219,15.219,0,0,1-.237-3.149c0-2.226,1.161-3.019,2.247-3.019a.562.562,0,0,1,.562.562V233.4a.6.6,0,0,0,.011.127.642.642,0,0,0,.146.013h.211a.562.562,0,0,1,.562.562v6.7A.562.562,0,0,1,67.809,241.363Z" transform="translate(-61.307 -214.26)" fill="#646464"/>
      <path id="패스_800" data-name="패스 800" d="M78.915,222.484a.746.746,0,0,1-.529-.219l-2.758-2.758-2.758,2.758a.749.749,0,0,1-1.059-1.059l3.287-3.287a.749.749,0,0,1,1.059,0l3.287,3.287a.749.749,0,0,1-.529,1.278Z" transform="translate(-58.87 -217.699)" fill="#646464"/>
      <path id="패스_801" data-name="패스 801" d="M67.79,222.485a.749.749,0,0,1-.53-.219l-3.289-3.289a.749.749,0,0,1,1.059-1.059l2.759,2.759,2.758-2.759a.749.749,0,1,1,1.059,1.059l-3.287,3.289A.749.749,0,0,1,67.79,222.485Z" transform="translate(-61.616 -217.699)" fill="#646464"/>
      <path id="사각형_647" data-name="사각형 647" d="M1.411-.555h19a1.968,1.968,0,0,1,1.966,1.966v19a1.967,1.967,0,0,1-1.965,1.965h-19A1.967,1.967,0,0,1-.555,20.413v-19A1.967,1.967,0,0,1,1.411-.555Zm19,21.434a.468.468,0,0,0,.467-.467v-19A.469.469,0,0,0,20.41.943h-19a.468.468,0,0,0-.468.468v19a.468.468,0,0,0,.467.467Z" transform="translate(0.555 7.393)" fill="#646464"/>
    </g>
  </g>
</svg>
