<svg xmlns="http://www.w3.org/2000/svg" width="40" height="40" viewBox="0 0 40 40">
  <g id="floor_facilities_bt_toilet_o" transform="translate(-578.982 -732.315)">
    <rect id="사각형_659" data-name="사각형 659" width="40" height="40" rx="6" transform="translate(578.982 732.315)" fill="#dedede"/>
    <g id="그룹_657" data-name="그룹 657" transform="translate(587.78 739.977)">
      <path id="합치기_28" data-name="합치기 28" d="M7081.454,3812.988v-9.453a.664.664,0,0,1,.663-.663h.3a.251.251,0,0,0,.351-.326v-7.5a.664.664,0,0,1,.664-.663,2.353,2.353,0,0,1,2.013,1.037,5.375,5.375,0,0,1,.724,3.089,21.485,21.485,0,0,1-.326,4.411.658.658,0,0,1-.645.511.628.628,0,0,1-.151-.018.663.663,0,0,1-.494-.8,21.183,21.183,0,0,0,.291-4.108,4.292,4.292,0,0,0-.488-2.332,1.1,1.1,0,0,0-.26-.274v6.642a1.469,1.469,0,0,1-1.315,1.627v8.815a.663.663,0,1,1-1.326,0Zm-1.863,0v-8.815a1.467,1.467,0,0,1-1.311-1.627V3795.9a1.113,1.113,0,0,0-.262.274,4.283,4.283,0,0,0-.488,2.332,20.869,20.869,0,0,0,.294,4.108.665.665,0,0,1-.494.8.744.744,0,0,1-.151.018.661.661,0,0,1-.645-.51,21.2,21.2,0,0,1-.332-4.413,5.362,5.362,0,0,1,.727-3.089,2.351,2.351,0,0,1,2.013-1.037.664.664,0,0,1,.663.663v7.5c0,.3,0,.326.353.326h.3a.664.664,0,0,1,.665.663v9.453a.664.664,0,0,1-1.327,0Zm13.941,0v-9.5a.664.664,0,0,1,.663-.663h1.783l-2.262-8.1a.656.656,0,0,1,.066-.515.663.663,0,0,1,.418-.308,2.8,2.8,0,0,1,.643-.078,2.353,2.353,0,0,1,1.623.65,5.515,5.515,0,0,1,1.379,2.5,21.486,21.486,0,0,1,.962,4.456.668.668,0,0,1-.624.7.665.665,0,0,1-.7-.624,20.688,20.688,0,0,0-.908-4.151,3.257,3.257,0,0,0-1.342-2.125l2.257,8.076a.661.661,0,0,1-.11.579.668.668,0,0,1-.527.262h-2v8.842a.663.663,0,0,1-1.325,0Zm-1.885,0v-8.842h-1.993a.663.663,0,0,1-.638-.841l2.259-8.076a3.248,3.248,0,0,0-1.343,2.125,20.617,20.617,0,0,0-.905,4.151.663.663,0,0,1-1.324-.077,21.254,21.254,0,0,1,.96-4.458,5.5,5.5,0,0,1,1.377-2.5,2.354,2.354,0,0,1,1.625-.65,2.8,2.8,0,0,1,.643.078.661.661,0,0,1,.485.823l-2.265,8.1h1.782a.664.664,0,0,1,.663.663v9.5a.663.663,0,0,1-1.326,0Zm-12.825-21.847a2.366,2.366,0,1,1,2.364,2.368A2.369,2.369,0,0,1,7078.821,3791.139Zm1.327,0a1.039,1.039,0,1,0,1.037-1.041A1.04,1.04,0,0,0,7080.148,3791.139Zm10.747-.007a2.359,2.359,0,1,1,2.357,2.361A2.361,2.361,0,0,1,7090.895,3791.132Zm1.325,0a1.032,1.032,0,1,0,1.032-1.033A1.034,1.034,0,0,0,7092.22,3791.132Z" transform="translate(-7076.302 -3788.874)" fill="#646464"/>
    </g>
  </g>
</svg>
