<svg xmlns="http://www.w3.org/2000/svg" width="40" height="40" viewBox="0 0 40 40">
  <g id="floor_facilities_bt_esc_o" transform="translate(-812.982 -730.5)">
    <rect id="사각형_655" data-name="사각형 655" width="40" height="40" rx="6" transform="translate(812.982 730.5)" fill="#dedede"/>
    <g id="그룹_664" data-name="그룹 664" transform="translate(823.839 736.96)">
      <path id="패스_808" data-name="패스 808" d="M343.179,156.731H331.145a.7.7,0,0,1-.7-.7v-9.039a.7.7,0,0,1,1.4,0v8.339h10.635v-3.285a3.267,3.267,0,0,1,.884-2.345c.321-.423.955-1.165,1.568-1.882.37-.433.719-.841.938-1.109.4-.49.678-1.926.064-2.5-.953-.889-5.151-4.949-5.329-5.121a.7.7,0,0,1,.007-1.013,4.786,4.786,0,0,1,4.713-1.019,9.714,9.714,0,0,1,3.958,2.225.7.7,0,0,1-.949,1.03c-1.479-1.362-4.2-2.773-6.166-1.658,1.225,1.184,3.988,3.851,4.72,4.533,1.25,1.168.867,3.427.065,4.409-.229.28-.583.694-.958,1.133-.572.669-1.22,1.428-1.52,1.822a1.948,1.948,0,0,0-.6,1.495v3.986A.7.7,0,0,1,343.179,156.731Z" transform="translate(-330.444 -130.021)" fill="#646464"/>
      <path id="패스_809" data-name="패스 809" d="M335.759,139.922a2.752,2.752,0,1,1,2.752-2.75A2.753,2.753,0,0,1,335.759,139.922Zm0-4.1a1.351,1.351,0,1,0,1.351,1.353A1.352,1.352,0,0,0,335.759,135.819Z" transform="translate(-329.771 -130.658)" fill="#646464"/>
      <path id="패스_810" data-name="패스 810" d="M343.688,149.164a.7.7,0,0,1-.49-.2l-5.137-5.039c-1.9,2.26-4.088,2.737-6.917,2.737a.7.7,0,0,1-.7-.7V132.14a.7.7,0,0,1,.7-.7h13.689a.7.7,0,0,1,.7.7v4.275a.7.7,0,1,1-1.4,0V132.84H331.845v12.411a6.241,6.241,0,0,0,5.578-2.784.7.7,0,0,1,1.059-.091l5.7,5.589a.7.7,0,0,1-.49,1.2Z" transform="translate(-330.444 -131.439)" fill="#646464"/>
      <path id="패스_811" data-name="패스 811" d="M347.172,149.45q-.228,0-.461-.019a7.171,7.171,0,0,1-3.939-1.708.7.7,0,0,1,.9-1.073c1.355,1.136,4.222,2.428,6.372.065a.7.7,0,1,1,1.035.943A5.178,5.178,0,0,1,347.172,149.45Z" transform="translate(-327.275 -127.49)" fill="#646464"/>
    </g>
  </g>
</svg>
