<svg xmlns="http://www.w3.org/2000/svg" width="40" height="40" viewBox="0 0 40 40">
  <g id="floor_facilities_bt_cs_o" transform="translate(-929.982 -730.5)">
    <rect id="사각형_654" data-name="사각형 654" width="40" height="40" rx="6" transform="translate(929.982 730.5)" fill="#dedede"/>
    <g id="그룹_667" data-name="그룹 667" transform="translate(937.448 737.247)">
      <path id="합치기_6" data-name="합치기 6" d="M9505.19,9450.726v-10.77a.643.643,0,0,1,.643-.643h.339c.471,0,.516-.086.516-.487v-8.542a.639.639,0,0,1,.64-.64c1.122,0,3.009.595,3.009,4.589a23.949,23.949,0,0,1-.375,5,.642.642,0,0,1-1.249-.3,23.415,23.415,0,0,0,.342-4.7c0-1.738-.363-2.8-1.084-3.161v7.754a1.571,1.571,0,0,1-1.5,1.755v10.145a.641.641,0,0,1-1.282,0Zm-2.12,0v-10.145a1.571,1.571,0,0,1-1.5-1.755v-7.754c-.718.365-1.081,1.423-1.081,3.161a23.866,23.866,0,0,0,.339,4.7.642.642,0,0,1-1.249.3,24.388,24.388,0,0,1-.372-5c0-3.994,1.884-4.589,3.006-4.589a.642.642,0,0,1,.643.64v8.542c0,.408.04.487.513.487h.342a.642.642,0,0,1,.64.643v10.77a.641.641,0,0,1-1.282,0Zm7.418-12.942V9436.5h1.9a.641.641,0,1,1,0,1.282Zm-23.464,0a.641.641,0,0,1,0-1.282h12.033v1.282Zm7.583-1.793-1.4-5.019a.645.645,0,0,1,.471-.795c1.045-.256,2.444-.012,3.358,2.4l.659-1.535a.642.642,0,0,1,1.18.507l-1.349,3.148a.643.643,0,0,1-1.211-.088c-.086-.327-.184-.676-.3-1.051-.426-1.4-.929-1.929-1.342-2.1l1.268,4.531Zm-5.062,0,1.265-4.534c-.415.175-.916.7-1.342,2.1-.3.981-.494,1.795-.627,2.433h-1.309c.141-.709.355-1.638.709-2.8.9-2.979,2.439-3.283,3.569-3.011a.644.644,0,0,1,.468.795l-1.4,5.019Zm.888-8.537a2.308,2.308,0,1,1,2.307,2.306A2.309,2.309,0,0,1,9490.434,9427.453Zm1.284,0a1.023,1.023,0,1,0,1.022-1.024A1.024,1.024,0,0,0,9491.718,9427.453Zm10.475-1.619a2.582,2.582,0,1,1,2.58,2.581A2.584,2.584,0,0,1,9502.192,9425.834Zm1.281,0a1.3,1.3,0,1,0,1.3-1.3A1.3,1.3,0,0,0,9503.474,9425.834Z" transform="translate(-9486.384 -9423.253)" fill="#646464" stroke="rgba(0,0,0,0)" stroke-miterlimit="10" stroke-width="1"/>
    </g>
  </g>
</svg>
