<svg xmlns="http://www.w3.org/2000/svg" xmlns:xlink="http://www.w3.org/1999/xlink" width="35" height="35" viewBox="0 0 35 35">
  <defs>
    <linearGradient id="linear-gradient" x1="0.5" x2="0.5" y2="1" gradientUnits="objectBoundingBox">
      <stop offset="0" stop-color="#6dc3f6"/>
      <stop offset="0.49" stop-color="#24a4ed"/>
      <stop offset="0.55" stop-color="#1a9ee4"/>
      <stop offset="0.7" stop-color="#1d9fe1"/>
      <stop offset="0.9" stop-color="#1896d4"/>
      <stop offset="1" stop-color="#1892c8"/>
    </linearGradient>
  </defs>
  <g id="ico_arrival_600" transform="translate(0.999 1.346)">
    <path id="패스_693" data-name="패스 693" d="M941.441,497.6a12.572,12.572,0,0,0-5.776-8.94,11.625,11.625,0,0,0-5.983-1.687h-.195a11.637,11.637,0,0,0-5.986,1.687,12.61,12.61,0,0,0-5.776,8.94,12.929,12.929,0,0,0,1.588,7.452,18.81,18.81,0,0,0,1.846,2.826c1.191,1.552,2.223,2.962,3.688,4.824,1.191,1.5,1.382,1.659,2.779,3.434.818,1.048,1.477,1.929,1.93,2.541v.052l.02-.028v.024h0l.02-.024v-.02c.453-.6,1.115-1.5,1.929-2.541,1.385-1.775,1.588-1.933,2.779-3.434,1.465-1.862,2.489-3.267,3.688-4.823a18.96,18.96,0,0,0,1.842-2.827,12.853,12.853,0,0,0,1.588-7.455Z" transform="translate(-913.043 -486.97)" fill="url(#linear-gradient)"/>
    <path id="패스_694" data-name="패스 694" d="M946.315,506.467a5.955,5.955,0,0,0-4.938-4.911V500h-1.866v1.588a5.954,5.954,0,0,0-4.938,4.911H933v1.854h1.588a5.955,5.955,0,0,0,4.939,4.911v1.588h1.865v-1.588a5.954,5.954,0,0,0,4.939-4.91h1.588V506.5Zm-1.445.929a4.427,4.427,0,1,1-4.426-4.4A4.426,4.426,0,0,1,944.87,507.4Z" transform="translate(-924.046 -496.316)" fill="#fff"/>
    <rect id="사각형_1" data-name="사각형 1" width="32.838" height="31.95" transform="translate(0 0.263)" fill="none"/>
    <ellipse id="타원_206" data-name="타원 206" cx="2.144" cy="2.144" rx="2.144" ry="2.144" transform="translate(14.258 8.88)" fill="#fff"/>
    <rect id="사각형_605" data-name="사각형 605" width="35" height="35" transform="translate(-0.999 -1.346)" fill="none"/>
  </g>
</svg>
