<svg xmlns="http://www.w3.org/2000/svg" xmlns:xlink="http://www.w3.org/1999/xlink" width="35" height="35" viewBox="0 0 35 35">
  <defs>
    <linearGradient id="linear-gradient" x1="0.5" x2="0.5" y2="1" gradientUnits="objectBoundingBox">
      <stop offset="0" stop-color="#ea7969"/>
      <stop offset="0.49" stop-color="#d93621"/>
      <stop offset="0.55" stop-color="#d3311d"/>
      <stop offset="0.7" stop-color="#d1321e"/>
      <stop offset="0.9" stop-color="#bc2721"/>
      <stop offset="1" stop-color="#bc2721"/>
    </linearGradient>
  </defs>
  <g id="ico_here_600" transform="translate(1.162 1.346)">
    <path id="패스_693" data-name="패스 693" d="M941.441,497.6a12.577,12.577,0,0,0-5.776-8.94,11.628,11.628,0,0,0-5.983-1.687h-.195a11.637,11.637,0,0,0-5.986,1.687,12.61,12.61,0,0,0-5.776,8.94,12.928,12.928,0,0,0,1.588,7.452,18.878,18.878,0,0,0,1.846,2.826c1.191,1.552,2.223,2.962,3.688,4.824,1.191,1.5,1.382,1.659,2.779,3.434.818,1.048,1.477,1.929,1.93,2.541v.052l.02-.028v.024h0l.02-.024v-.02c.453-.6,1.115-1.5,1.929-2.541,1.385-1.775,1.588-1.933,2.779-3.434,1.465-1.862,2.489-3.267,3.688-4.823a18.968,18.968,0,0,0,1.842-2.826,12.849,12.849,0,0,0,1.607-7.456Z" transform="translate(-913.281 -486.97)" fill="url(#linear-gradient)"/>
    <path id="합치기_7" data-name="합치기 7" d="M8816.377,15589.41v-1.564a5.949,5.949,0,0,1-4.949-4.891h-1.589v-1.847h1.581a5.953,5.953,0,0,1,4.949-4.891v-1.565h1.87v1.55a5.958,5.958,0,0,1,4.949,4.891l1.6-.008v1.847H8823.2a5.953,5.953,0,0,1-4.949,4.891v1.588Zm.923-11.761a4.44,4.44,0,1,0,4.441,4.37l.008,0a4.421,4.421,0,0,0-4.42-4.366Zm-2.132,4.394a2.136,2.136,0,1,1,2.136,2.137A2.137,2.137,0,0,1,8815.168,15582.043Z" transform="translate(-8801.142 -15570.985)" fill="#fff"/>
    <rect id="사각형_606" data-name="사각형 606" width="35" height="35" transform="translate(-1.162 -1.346)" fill="none"/>
  </g>
</svg>
