<svg xmlns="http://www.w3.org/2000/svg" width="36" height="36" viewBox="0 0 36 36">
  <g id="store_list_bt_location" transform="translate(-284 -72)">
    <rect id="사각형_650" data-name="사각형 650" width="36" height="36" rx="6" transform="translate(284 72)" fill="#646464"/>
    <path id="패스_787" data-name="패스 787" d="M7.584,1.445A6.319,6.319,0,0,0,1.391,7.87c0,1.228.6,3.687,3.464,8.425,1.011,1.673,2.035,3.174,2.725,4.15.687-.979,1.711-2.49,2.731-4.184,2.864-4.759,3.466-7.189,3.466-8.39A6.319,6.319,0,0,0,7.584,1.445M7.584,0A7.739,7.739,0,0,1,15.167,7.87c0,2.02-1.237,5.1-3.676,9.154-1.8,2.992-3.627,5.44-3.645,5.464a.326.326,0,0,1-.261.133h0a.327.327,0,0,1-.261-.132c-.018-.024-1.845-2.447-3.646-5.429C1.237,13.024,0,9.932,0,7.87A7.739,7.739,0,0,1,7.584,0" transform="translate(294.416 78.48)" fill="#fff"/>
    <path id="패스_788" data-name="패스 788" d="M10.821,14.027a3.419,3.419,0,1,1,3.419-3.419,3.423,3.423,0,0,1-3.419,3.419m0-5.448a2.029,2.029,0,1,0,2.028,2.029,2.031,2.031,0,0,0-2.028-2.029" transform="translate(291.133 75.014)" fill="#fff"/>
  </g>
</svg>
