<svg xmlns="http://www.w3.org/2000/svg" width="55" height="55" viewBox="0 0 55 55">
  <g id="store_category_living" transform="translate(-992 -776)">
    <path id="패스_2883" data-name="패스 2883" d="M11,0H44A11,11,0,0,1,55,11V44A11,11,0,0,1,44,55H11A11,11,0,0,1,0,44V11A11,11,0,0,1,11,0Z" transform="translate(992 776)" fill="#fcfcfc"/>
    <path id="패스_545" data-name="패스 545" d="M29.693,5.959a3.948,3.948,0,0,1,3.94,3.94V23.3h-5.3V26.72H24.113V23.3H9.522V26.72H5.305V23.3H0V9.9A3.948,3.948,0,0,1,3.848,5.96V5.175A5.188,5.188,0,0,1,9.023,0H24.133a5.188,5.188,0,0,1,5.176,5.175v.8c.127-.012.255-.018.384-.018M5.278,6.194A3.955,3.955,0,0,1,7.861,9.506l0,.041h0l0,.044V14.86H25.753V9.7l0-.032V9.627l0-.04,0-.038v0l0-.036,0-.037,0-.026V9.436A3.961,3.961,0,0,1,27.88,6.4V5.175A3.759,3.759,0,0,0,24.133,1.43H9.023A3.757,3.757,0,0,0,5.278,5.175ZM26.9,23.3H25.543V25.29H26.9Zm-18.809,0H6.735V25.29H8.092Zm21.6-15.913a2.523,2.523,0,0,0-2.473,2.067v0l-.009.058v.013l0,.018,0,.03,0,.024v.008l0,.016v.048h0l0,.025V16.29H6.451V9.73l0-.024V9.675l0-.028v0A2.511,2.511,0,0,0,1.43,9.9V21.872H32.205V9.9a2.52,2.52,0,0,0-2.511-2.511" transform="translate(1002.683 790.471)" fill="#414445"/>
  </g>
</svg>
