<svg xmlns="http://www.w3.org/2000/svg" width="55" height="55" viewBox="0 0 55 55">
  <g id="store_category_spa" transform="translate(-854 -776)">
    <rect id="사각형_628" data-name="사각형 628" width="55" height="55" rx="10" transform="translate(854 776)" fill="#fcfcfc"/>
    <path id="패스_3102" data-name="패스 3102" d="M206.288,54.832a.523.523,0,0,1-.523-.523V49.074a.523.523,0,1,1,1.047,0v5.234a.523.523,0,0,1-.523.523" transform="translate(686.958 747.326)" fill="#414445" stroke="#414445" stroke-width="0.5"/>
    <path id="패스_3103" data-name="패스 3103" d="M127.607,54.832a.523.523,0,0,1-.523-.523V49.074a.523.523,0,1,1,1.047,0v5.234a.523.523,0,0,1-.523.523" transform="translate(754.124 747.326)" fill="#414445" stroke="#414445" stroke-width="0.5"/>
    <path id="패스_3104" data-name="패스 3104" d="M133.365,87.436a9.425,9.425,0,0,1-6.1-2.2.523.523,0,1,1,.676-.8,8.473,8.473,0,0,0,10.839,0,.523.523,0,0,1,.676.8,9.428,9.428,0,0,1-6.1,2.2" transform="translate(754.124 716.801)" fill="#414445" stroke="#414445" stroke-width="0.5"/>
    <path id="패스_3105" data-name="패스 3105" d="M123.945,104.2h-17.8a.523.523,0,0,1-.523-.523V90.071a.523.523,0,0,1,.289-.468,4.564,4.564,0,0,0,2.388-2.977l.478-1.915a.523.523,0,1,1,1.016.254l-.478,1.915a5.609,5.609,0,0,1-2.646,3.5v12.773h16.749V90.384a5.606,5.606,0,0,1-2.646-3.5l-.479-1.916a.523.523,0,1,1,1.016-.254l.478,1.915a4.562,4.562,0,0,0,2.388,2.976.523.523,0,0,1,.289.468v13.61a.523.523,0,0,1-.523.523" transform="translate(772.441 716.796)" fill="#414445" stroke="#414445" stroke-width="0.5"/>
    <path id="패스_3106" data-name="패스 3106" d="M28.535,7.322,22.388,1.175l-.006-.005a.543.543,0,0,0-.065-.053L22.29,1.1a.479.479,0,0,0-.054-.028L22.2,1.059l-.017-.007L19.123.03a.512.512,0,0,0-.546.134A5.758,5.758,0,0,1,14.342,2.05h0A5.755,5.755,0,0,1,10.107.165.512.512,0,0,0,9.57.028L6.5,1.051l-.016.007-.033.014c-.018.008-.036.018-.053.028l-.027.017A.509.509,0,0,0,6.3,1.17L6.3,1.175l0,0L.15,7.322a.512.512,0,0,0-.077.626L3.146,13.07a.512.512,0,0,0,.6.223l2.4-.8V24.076a.512.512,0,0,0,.512.512h9.575l.335-1.024h-9.4V1.907L9.59,1.1a6.741,6.741,0,0,0,4.752,1.973h0A6.743,6.743,0,0,0,19.095,1.1l2.419.806V14.751l1.024.079V12.492l2.4.8a.512.512,0,0,0,.6-.223l3.073-5.122a.512.512,0,0,0-.077-.626M6.147,11.413l-2.333.778L1.157,7.764,6.147,2.774Zm18.725.778-2.334-.778V2.774l4.99,4.989Z" transform="translate(862.608 788.771)" fill="#414445" stroke="#414445" stroke-width="0.5"/>
  </g>
</svg>
