<svg xmlns="http://www.w3.org/2000/svg" width="55" height="55" viewBox="0 0 55 55">
  <g id="store_category_fnb" transform="translate(-1394 -774)">
    <rect id="사각형_632" data-name="사각형 632" width="55" height="55" rx="10" transform="translate(1394 774)" fill="#fcfcfc"/>
    <path id="패스_703" data-name="패스 703" d="M4.807,27.642H2.441a.8.8,0,0,1-.8-.8V.8a.8.8,0,0,1,1.6,0V26.043h.767V.8a.8.8,0,0,1,1.6,0V26.842A.8.8,0,0,1,4.807,27.642Z" transform="translate(1413.098 788.678)" fill="#414445"/>
    <path id="패스_704" data-name="패스 704" d="M3.166,12.418H.8a.8.8,0,0,1-.8-.8V.8A.8.8,0,1,1,1.6.8v10.02H3.166a.8.8,0,1,1,0,1.6Z" transform="translate(1412.373 788.678)" fill="#414445"/>
    <path id="패스_705" data-name="패스 705" d="M13.38,0a.8.8,0,0,1,.8.8V26.843a.8.8,0,0,1-.8.8H11.012a.8.8,0,0,1-.8-.8V12.419H7.761a.8.8,0,0,1-.8-.8V5.745A5.193,5.193,0,0,1,10.249.686,8.611,8.611,0,0,1,13.38,0Zm-.8,26.043V1.669c-1.374.2-4.021.993-4.021,4.076V10.82h2.451a.8.8,0,0,1,.8.8V26.043Z" transform="translate(1415.448 788.679)" fill="#414445"/>
    <path id="패스_706" data-name="패스 706" d="M6.447,12.418H4.081a.8.8,0,1,1,0-1.6H5.648V.8a.8.8,0,0,1,1.6,0V11.619A.8.8,0,0,1,6.447,12.418Z" transform="translate(1413.823 788.678)" fill="#414445"/>
  </g>
</svg>
