<svg xmlns="http://www.w3.org/2000/svg" width="55" height="55" viewBox="0 0 55 55">
  <g id="store_category_all_o" transform="translate(-593 -774)">
    <rect id="사각형_673" data-name="사각형 673" width="55" height="55" rx="10" transform="translate(593 774)" fill="#414445"/>
    <g id="합치기_24" data-name="합치기 24" transform="translate(-5577 -10406)" fill="none">
      <path d="M6199,11218v-10h10v10Zm-12,0v-10h10v10Zm12-12v-10h10v10Zm-12,0v-10h10v10Z" stroke="none"/>
      <path d="M 6206.99853515625 11216.0009765625 L 6206.99853515625 11210 L 6201.0009765625 11210 L 6201.0009765625 11216.0009765625 L 6206.99853515625 11216.0009765625 M 6195 11216.0009765625 L 6195 11210 L 6188.99951171875 11210 L 6188.99951171875 11216.0009765625 L 6195 11216.0009765625 M 6206.99853515625 11204.0009765625 L 6206.99853515625 11198.001953125 L 6201.0009765625 11198.001953125 L 6201.0009765625 11204.0009765625 L 6206.99853515625 11204.0009765625 M 6195 11204.0009765625 L 6195 11198.001953125 L 6188.99951171875 11198.001953125 L 6188.99951171875 11204.0009765625 L 6195 11204.0009765625 M 6208.99853515625 11218.0009765625 L 6199.0009765625 11218.0009765625 L 6199.0009765625 11208 L 6208.99853515625 11208 L 6208.99853515625 11218.0009765625 Z M 6197 11218.0009765625 L 6186.99951171875 11218.0009765625 L 6186.99951171875 11208 L 6197 11208 L 6197 11218.0009765625 Z M 6208.99853515625 11206.0009765625 L 6199.0009765625 11206.0009765625 L 6199.0009765625 11196.001953125 L 6208.99853515625 11196.001953125 L 6208.99853515625 11206.0009765625 Z M 6197 11206.0009765625 L 6186.99951171875 11206.0009765625 L 6186.99951171875 11196.001953125 L 6197 11196.001953125 L 6197 11206.0009765625 Z" stroke="none" fill="#fff"/>
    </g>
  </g>
</svg>
