<svg xmlns="http://www.w3.org/2000/svg" width="55" height="55" viewBox="0 0 55 55">
  <g id="store_category_beauty" transform="translate(-1254 -774)">
    <rect id="사각형_631" data-name="사각형 631" width="55" height="55" rx="10" transform="translate(1254 774)" fill="#fcfcfc"/>
    <path id="패스_672" data-name="패스 672" d="M13,26.266V18.222h7.313v8.045" transform="translate(1267.499 777.622)" fill="none" stroke="#414445" stroke-miterlimit="10" stroke-width="1.5"/>
    <path id="패스_673" data-name="패스 673" d="M19.776,41.655H12.463A1.462,1.462,0,0,1,11,40.192V29.222H21.239v10.97A1.462,1.462,0,0,1,19.776,41.655Z" transform="translate(1268.038 774.666)" fill="none" stroke="#414445" stroke-miterlimit="10" stroke-width="1.5"/>
    <path id="패스_674" data-name="패스 674" d="M6.851,37.58H1v-13.9a1.463,1.463,0,0,1,1.463-1.463H8.313" transform="translate(1270.724 776.547)" fill="none" stroke="#414445" stroke-miterlimit="10" stroke-width="1.5"/>
    <path id="패스_675" data-name="패스 675" d="M19.851,13.655V7.8a7.2,7.2,0,0,0-3.9-6.582A9.151,9.151,0,0,0,14,7.073v6.582" transform="translate(1267.231 782.189)" fill="none" stroke="#414445" stroke-miterlimit="10" stroke-width="1.5"/>
    <path id="패스_676" data-name="패스 676" d="M7.119,45.416H2V43.222" transform="translate(1270.456 770.905)" fill="none" stroke="#414445" stroke-miterlimit="10" stroke-width="1.5"/>
  </g>
</svg>
