<svg xmlns="http://www.w3.org/2000/svg" width="55" height="55" viewBox="0 0 55 55">
  <g id="store_category_fashion" transform="translate(-723 -776)">
    <rect id="사각형_627" data-name="사각형 627" width="55" height="55" rx="10" transform="translate(723 776)" fill="#fcfcfc"/>
    <path id="패스_3091" data-name="패스 3091" d="M64.7,22.459a.7.7,0,0,1-.39-1.286c3.558-2.372,8.274-9.6,9.379-11.335L72.539,8.111a.7.7,0,0,1,.088-.885l1.2-1.2V3.8l-2.548-2.6a.7.7,0,1,1,1-.982L75.028,3.02a.7.7,0,0,1,.2.491V6.318a.7.7,0,0,1-.206.5l-1,1,1.084,1.626a.7.7,0,0,1,.014.757c-.232.378-5.744,9.287-10.034,12.147a.7.7,0,0,1-.389.118" transform="translate(684.045 786.978)" fill="#3a3a3c"/>
    <path id="패스_3092" data-name="패스 3092" d="M64.7,117.063a.7.7,0,0,1-.7-.7V105.133a.7.7,0,0,1,.134-.413c.484-.666.964-1.4,1.511-2.3.181-.3.353-.6.519-.894l.032-.057a.7.7,0,1,1,1.221.691l-.032.056c-.172.3-.35.618-.542.933-.517.851-.979,1.558-1.441,2.2v11a.7.7,0,0,1-.7.7" transform="translate(684.044 703.603)" fill="#3a3a3c"/>
    <path id="패스_3093" data-name="패스 3093" d="M53.351,19.146h0a.7.7,0,0,1-.612-.359A40.585,40.585,0,0,1,47.681.7a.7.7,0,0,1,.7-.7H58.32a.7.7,0,0,1,.7.7,40.581,40.581,0,0,1-5.059,18.084.7.7,0,0,1-.612.359M49.111,1.4a40.622,40.622,0,0,0,4.241,15.554A40.619,40.619,0,0,0,57.593,1.4Z" transform="translate(697.5 786.979)" fill="#3a3a3c"/>
    <path id="패스_3094" data-name="패스 3094" d="M39.861,20.115a.7.7,0,0,1-.51-.219,70.09,70.09,0,0,1-7.246-9.7.7.7,0,0,1,.014-.757L33.2,7.811l-1-1a.7.7,0,0,1-.205-.5V3.51a.7.7,0,0,1,.2-.491L34.953.212a.7.7,0,1,1,1,.982L33.4,3.8v2.23l1.2,1.2a.7.7,0,0,1,.088.885L33.539,9.837A67.894,67.894,0,0,0,40.37,18.93a.7.7,0,0,1-.509,1.185" transform="translate(710.429 786.979)" fill="#3a3a3c"/>
    <path id="패스_3095" data-name="패스 3095" d="M85.825,86.459H76.7a.7.7,0,1,1,0-1.4h8.422V64.7a.7.7,0,0,1,1.4,0V85.757a.7.7,0,0,1-.7.7" transform="translate(674.149 734.208)" fill="#3a3a3c"/>
    <path id="패스_3096" data-name="패스 3096" d="M4.913,45.474H.7a.7.7,0,0,1-.7-.7v-23.1a4.188,4.188,0,0,1,2.328-3.767L6,16.073a.7.7,0,1,1,.627,1.256L2.956,19.165A2.792,2.792,0,0,0,1.4,21.676V44.07H4.913a.7.7,0,1,1,0,1.4" transform="translate(736.815 773.788)" fill="#3a3a3c"/>
    <path id="패스_3097" data-name="패스 3097" d="M126.316,45.474h-4.211a.7.7,0,0,1,0-1.4h3.509V21.677a2.792,2.792,0,0,0-1.552-2.511l-3.674-1.836a.7.7,0,0,1,.627-1.256l3.674,1.836a4.188,4.188,0,0,1,2.328,3.767v23.1a.7.7,0,0,1-.7.7" transform="translate(637.869 773.787)" fill="#3a3a3c"/>
    <path id="패스_3098" data-name="패스 3098" d="M33.827,86.459H24.7a.7.7,0,0,1-.7-.7V64.7a.7.7,0,0,1,1.4,0V85.055h8.421a.7.7,0,1,1,0,1.4" transform="translate(717.024 734.208)" fill="#3a3a3c"/>
    <path id="패스_3099" data-name="패스 3099" d="M81.4,132.7a.7.7,0,1,0-.7.7.7.7,0,0,0,.7-.7" transform="translate(670.852 678.138)" fill="#3a3a3c"/>
    <path id="패스_3100" data-name="패스 3100" d="M81.4,156.7a.7.7,0,1,0-.7.7.7.7,0,0,0,.7-.7" transform="translate(670.852 658.348)" fill="#3a3a3c"/>
  </g>
</svg>
