<svg xmlns="http://www.w3.org/2000/svg" width="55" height="55" viewBox="0 0 55 55">
  <g id="store_category_beauty_o" transform="translate(-1254 -774)">
    <path id="패스_3120" data-name="패스 3120" d="M10,0H45A10,10,0,0,1,55,10V45A10,10,0,0,1,45,55H10A10,10,0,0,1,0,45V10A10,10,0,0,1,10,0Z" transform="translate(1254 774)" fill="#414445"/>
    <path id="합치기_27" data-name="합치기 27" d="M-5233.473,4606.577a2.216,2.216,0,0,1-2.213-2.213v-11.72h1.46V4584.6h.733v-5.832a9.877,9.877,0,0,1,2.162-6.371l.381-.4.492.246a7.416,7.416,0,0,1,3.647,3.879,8.982,8.982,0,0,1,.667,3.374v5.1h.73v8.045h1.464v11.72a2.216,2.216,0,0,1-2.212,2.213Zm-.713-2.213a.714.714,0,0,0,.713.713h7.313a.714.714,0,0,0,.712-.713v-10.22h-8.738Zm7.274-11.72V4586.1h-5.813v6.545Zm-.73-8.045v-5.1a6.471,6.471,0,0,0-2.964-5.622,9.154,9.154,0,0,0-1.386,4.891v5.832Zm-14.625,21.979v-2.195H-5243v-14.645a2.216,2.216,0,0,1,2.213-2.212h5.85v1.5h-5.85a.712.712,0,0,0-.713.712v13.145h5.1v1.5h-4.368v.695h4.368v1.5Z" transform="translate(6513.974 -3789.505)" fill="#fff"/>
  </g>
</svg>
